<?xml version="1.0" encoding="utf-8"?>
<!-- Generator: Adobe Illustrator 16.0.0, SVG Export Plug-In . SVG Version: 6.00 Build 0)  -->
<!DOCTYPE svg PUBLIC "-//W3C//DTD SVG 1.1//EN" "http://www.w3.org/Graphics/SVG/1.1/DTD/svg11.dtd">
<svg version="1.1" id="Layer_1" xmlns="http://www.w3.org/2000/svg" xmlns:xlink="http://www.w3.org/1999/xlink" x="0px" y="0px"
	 width="1245.454px" height="314.286px" viewBox="0 0 1245.454 314.286" enable-background="new 0 0 1245.454 314.286"
	 xml:space="preserve">
<g>
	<path fill="#002E3B" d="M1220.328,164.931h-38.513v-14.557h-13.636V84.408c0-13.635-4.79-25.428-14.556-35.009
		c-9.766-9.766-21.375-14.557-35.011-14.557c-13.633,0-25.427,4.791-35.009,14.557c-9.766,9.766-14.556,21.374-14.556,35.009v80.706
		H983.92c7.74-2.209,14.556-6.448,20.638-12.528c9.766-9.765,14.556-21.374,14.556-35.011V84.408
		c0-13.635-4.788-25.428-14.556-35.009c-9.766-9.766-21.375-14.557-35.008-14.557h-49.567v115.715h-23.399v14.556h-61.728
		c7.557-2.209,14.372-6.448,20.454-12.528c9.763-9.765,14.556-21.374,14.556-35.011V84.408c0-13.635-4.793-25.428-14.556-35.009
		c-9.768-9.766-21.375-14.557-35.011-14.557h-49.566v130.271h-49.935V72.432h-16.583v92.499h-22.296L638.985,34.657h-17.317v130.273
		h-49.937V49.951h14.19V33.553h-44.594v16.398h13.822v114.979H422.479V84.225c0-9.214,3.32-16.953,9.768-23.401
		c6.449-6.449,14.19-9.767,23.401-9.767c9.214,0,16.953,3.318,23.398,9.767c6.453,6.448,9.768,14.187,9.768,23.401v13.082h-14.004
		v16.398h44.591V97.307h-14.003V84.225c0-13.636-4.789-25.428-14.558-35.012c-9.763-9.763-21.374-14.556-35.01-14.556
		c-13.635,0-25.427,4.792-35.008,14.556c-9.766,9.767-14.558,21.376-14.558,35.012v80.706H370.52v-14.557h-14.37V84.408
		c0-13.635-4.792-25.428-14.558-35.009c-9.766-9.766-21.373-14.557-35.01-14.557c-13.634,0-25.428,4.791-35.01,14.557
		c-9.766,9.766-14.555,21.374-14.555,35.009v80.706H192.34c-9.764-9.581-21.373-14.556-35.007-14.556
		c-9.216,0-16.954-3.316-23.403-9.767c-6.448-6.448-9.764-14.188-9.764-23.401V84.225c0-9.214,3.315-16.953,9.764-23.401
		c6.449-6.449,14.188-9.767,23.403-9.767c9.212,0,16.95,3.318,23.401,9.767c6.447,6.448,9.764,14.187,9.764,23.401v4.974h-14.186
		v16.4h43.668v-16.4h-13.819v-4.974c0-13.636-4.789-25.428-14.555-35.009c-9.769-9.766-21.379-14.557-35.011-14.557
		c-13.637,0-25.429,4.791-35.012,14.557c-9.766,9.764-14.557,21.373-14.557,35.009v33.166c0,13.637,4.791,25.43,14.557,35.01
		c6.082,6.08,12.899,10.135,20.453,12.53H44.011c-0.919-5.713-5.896-10.135-11.791-10.135c-6.634,0-11.976,5.344-11.976,11.976
		c0,6.633,5.342,11.978,11.976,11.978c5.896,0,10.872-4.422,11.791-10.136h123.086c4.791,1.476,9.03,4.239,12.899,8.109
		c6.45,6.449,9.766,14.188,9.766,23.4v33.17c0,3.312-0.367,6.26-1.29,9.209h16.95c0.553-2.949,0.739-6.078,0.739-9.209v-33.17
		c0-11.977-3.686-22.48-11.241-31.51h61.176v64.492c0,13.636,4.789,25.43,14.555,35.009c9.766,9.766,21.375,14.558,35.008,14.558
		c13.637,0,25.431-4.792,35.013-14.558c9.766-9.766,14.557-21.373,14.557-35.009v-64.492h49.935v64.492
		c0,13.636,4.789,25.43,14.555,35.009c9.766,9.766,21.376,14.558,35.01,14.558c13.635,0,25.429-4.792,35.011-14.558
		c9.764-9.766,14.558-21.373,14.558-35.009v-16.585h-16.586v16.585c0,9.214-3.315,16.951-9.764,23.401
		c-6.449,6.45-14.189,9.764-23.4,9.764c-9.214,0-16.952-3.313-23.402-9.764c-6.451-6.45-9.766-14.188-9.766-23.401v-64.492h132.665
		v73.706h16.583v-73.706h49.935v114.059h16.584V168.614h27.639l24.323,73.889h30.587v-73.889h49.937v73.889h16.581v-73.889h132.669
		v114.059h16.584V168.614h21.003l44.038,114.059h17.688l-44.037-114.059h94.157v64.492c0,13.636,4.792,25.43,14.558,35.009
		c9.766,9.582,21.373,14.558,35.009,14.558s25.427-4.792,35.009-14.558s14.557-21.373,14.557-35.009v-64.492h51.963v-3.683H1220.328
		z M787.134,51.242h33.165c9.211,0,16.954,3.316,23.403,9.765c6.447,6.45,9.764,14.189,9.764,23.4v33.167
		c0,9.214-3.316,16.952-9.764,23.403c-6.449,6.448-14.192,9.766-23.403,9.766h-33.165V51.242z M1085.631,84.225
		c0-9.214,3.318-16.953,9.768-23.401c6.447-6.449,14.188-9.767,23.398-9.767c9.217,0,16.954,3.318,23.401,9.767
		c6.452,6.448,9.766,14.187,9.766,23.401v65.964h-14.371v14.556h-51.778V84.225H1085.631z M936.385,51.242h33.165
		c9.211,0,16.95,3.316,23.398,9.765c6.449,6.45,9.766,14.189,9.766,23.4v33.167c0,9.214-3.316,16.952-9.766,23.403
		c-6.448,6.448-14.188,9.766-23.398,9.766h-28.378v-0.186h-4.787V51.242z M637.881,84.776l26.535,80.154h-26.535V84.776z
		 M272.676,84.225c0-9.214,3.318-16.953,9.768-23.401c6.448-6.449,14.19-9.767,23.402-9.767c9.213,0,16.951,3.318,23.401,9.767
		c6.449,6.448,9.766,14.187,9.766,23.401v65.964h-13.636v14.556h-52.514V84.225H272.676z M339.013,233.106
		c0,9.214-3.316,16.951-9.766,23.401c-6.45,6.45-14.188,9.764-23.401,9.764c-9.212,0-16.954-3.313-23.402-9.764
		c-6.449-6.45-9.768-14.188-9.768-23.401v-64.492h66.152v64.492H339.013z M704.031,232.739l-21.189-64.125h21.189V232.739z
		 M1151.78,233.106c0,9.214-3.315,16.951-9.766,23.401c-6.447,6.45-14.188,9.764-23.399,9.764c-9.214,0-16.951-3.313-23.402-9.764
		c-6.447-6.45-9.766-14.188-9.766-23.401v-64.492h66.151v64.492H1151.78z"/>
	<path fill="#002E3B" d="M123.428,216.707h-16.586v16.586c0,3.131,0.186,6.26,0.739,9.209h16.951
		c-0.735-2.949-1.288-5.896-1.288-9.209v-16.586H123.428z"/>
</g>
</svg>
