<?xml version="1.0" encoding="UTF-8"?>
<svg id="Layer_1" data-name="Layer 1" xmlns="http://www.w3.org/2000/svg" viewBox="0 0 1200.08 389.52">
  <defs>
    <style>
      .cls-1 {
        fill: #fff;
      }
    </style>
  </defs>
  <g>
    <path class="cls-1" d="m676.97,263.86v23.21h-2.4v-23.21h-4.98v-2.03h12.16v2.21h-4.79v-.18Z"/>
    <path class="cls-1" d="m696.87,287.08l-4.61-11.79h-3.32v11.79h-2.4v-25.25h6.08c.92,0,1.66.19,2.4.37.73.19,1.47.55,2.03,1.1.55.56,1.11,1.29,1.47,2.03.37.92.55,1.84.55,3.13,0,1.11-.18,2.03-.37,2.77-.18.74-.55,1.47-1.1,2.03-.37.55-.92.92-1.47,1.29-.55.37-1.11.55-1.66.55l4.97,12.16h-2.58v-.19Zm-.19-18.43c0-.92-.18-1.66-.37-2.21-.18-.55-.55-1.11-.92-1.47-.37-.37-.92-.55-1.48-.74-.55-.19-1.11-.19-1.66-.19h-3.13v9.58h3.32c1.29,0,2.4-.37,3.13-1.29.74-1.1,1.11-2.21,1.11-3.68Z"/>
    <path class="cls-1" d="m716.22,287.08l-1.48-6.26h-7.74l-1.66,6.26h-2.58l6.45-25.43h3.32l6.27,25.43h-2.58Zm-5.35-23.03h0l-3.68,14.74h7l-3.32-14.74Z"/>
    <path class="cls-1" d="m735.01,287.08l-8.85-21.01h-.18v21.01h-2.4v-25.25h3.13l8.84,21.01h.19v-21.01h2.21v25.43h-2.95v-.19Z"/>
    <path class="cls-1" d="m756.75,280.63c0,1.11-.18,2.03-.55,2.95-.37.92-.74,1.66-1.29,2.21-.55.55-1.29,1.11-2.02,1.48-.74.37-1.66.55-2.58.55-1.29,0-2.4-.19-3.5-.74-1.1-.55-2.03-1.29-2.58-2.21l1.48-1.85c.55.74,1.29,1.47,2.02,1.85.92.37,1.66.73,2.58.73,1.1,0,2.03-.37,2.95-1.29.92-.92,1.1-2.03,1.1-3.5,0-.74-.18-1.29-.37-1.84-.19-.55-.56-1.1-.92-1.47-.37-.37-.92-.74-1.29-1.1-.55-.37-1.11-.55-1.66-.92-.74-.37-1.29-.74-2.02-1.11-.74-.37-1.11-.92-1.66-1.47-.55-.55-.92-1.29-1.11-2.03-.37-.73-.37-1.66-.37-2.58,0-1.11.18-2.21.55-3.13.37-.92.92-1.66,1.47-2.21.55-.55,1.29-1.11,2.03-1.29.74-.37,1.47-.37,2.4-.37,1.11,0,2.21.18,3.13.55.92.37,1.66.92,2.4,1.84l-1.47,1.84c-.56-.74-1.11-1.1-1.66-1.47-.55-.37-1.29-.37-2.03-.37-.55,0-.92,0-1.47.19-.56.18-.92.37-1.29.92-.37.37-.74.92-.92,1.47-.19.55-.37,1.29-.37,2.03s.19,1.29.37,1.84c.18.55.55.92.92,1.47.37.37.74.74,1.29,1.11.55.37.92.55,1.47.92.74.37,1.29.74,2.03,1.11.74.37,1.29.92,1.84,1.47.55.55.92,1.29,1.29,2.03-.37.55-.18,1.48-.18,2.4Z"/>
    <path class="cls-1" d="m775.36,268.65c0,1.11-.18,2.21-.55,3.13-.37.92-.74,1.66-1.29,2.21-.55.55-1.29,1.1-2.03,1.29-.74.18-1.47.55-2.4.55h-3.69v11.24h-2.4v-25.25h5.9c.74,0,1.47.19,2.21.37.74.19,1.47.55,2.03,1.1.55.56,1.11,1.29,1.47,2.21.37.92.74,1.84.74,3.13Zm-2.39,0c0-.92-.18-1.47-.37-2.21-.18-.55-.55-1.11-.92-1.47-.37-.37-.74-.74-1.29-.92-.55-.18-1.1-.18-1.66-.18h-3.32v9.76h3.32c1.1,0,2.03-.37,2.95-1.29.92-.74,1.29-2.03,1.29-3.68Z"/>
    <path class="cls-1" d="m790.66,287.08l-1.47-6.26h-7.74l-1.66,6.26h-2.58l6.45-25.43h3.32l6.26,25.43h-2.58Zm-5.34-23.03h0l-3.69,14.74h7l-3.32-14.74Z"/>
    <path class="cls-1" d="m808.53,287.08l-4.6-11.79h-3.32v11.79h-2.4v-25.25h6.08c.92,0,1.66.19,2.4.37.74.19,1.47.55,2.03,1.1.55.56,1.11,1.29,1.47,2.03.37.92.55,1.84.55,3.13,0,1.11-.18,2.03-.37,2.77-.18.74-.55,1.47-1.11,2.03-.37.55-.92.92-1.47,1.29-.55.37-1.1.55-1.66.55l4.98,12.16h-2.58v-.19Zm-.18-18.43c0-.92-.18-1.66-.37-2.21-.18-.55-.55-1.11-.92-1.47-.37-.37-.92-.55-1.47-.74-.55-.19-1.1-.19-1.66-.19h-3.32v9.58h3.32c1.29,0,2.39-.37,3.13-1.29.92-1.1,1.29-2.21,1.29-3.68Z"/>
    <path class="cls-1" d="m817.01,287.08v-25.25h10.13v2.21h-7.74v8.85h7.19v2.21h-7.19v9.77h8.11v2.21h-10.5Zm7.74-27.27l-2.58-3.69-2.58,3.69h-2.4l3.68-5.16h2.58l3.68,5.16h-2.4Z"/>
    <path class="cls-1" d="m845.01,287.08l-8.84-21.01h-.18v21.01h-2.4v-25.25h3.13l8.84,21.01h.19v-21.01h2.21v25.43h-2.95v-.19Z"/>
    <path class="cls-1" d="m866.76,286.89c-1.11.55-2.21.92-3.5.92-1.47,0-2.58-.37-3.69-1.11-1.11-.74-2.03-1.66-2.76-2.76-.74-1.1-1.29-2.58-1.66-4.24-.37-1.66-.55-3.32-.55-5.35,0-1.84.18-3.69.55-5.34.37-1.66.93-2.95,1.66-4.24.74-1.29,1.66-2.03,2.76-2.76,1.1-.74,2.21-.92,3.69-.92,1.1,0,2.39.19,3.31.74,1.11.56,1.84,1.29,2.58,2.4l-1.66,1.66c-.56-.92-1.11-1.47-1.84-1.84-.74-.37-1.47-.55-2.39-.55-1.11,0-2.03.37-2.77.92-.74.55-1.47,1.29-1.84,2.4-.55.92-.92,2.21-1.11,3.5-.18,1.29-.37,2.76-.37,4.24s.19,2.95.37,4.24c.18,1.29.74,2.58,1.11,3.5.55.92,1.11,1.84,1.84,2.39.74.55,1.66.92,2.77.92.92,0,1.65-.19,2.39-.73.74-.55,1.29-1.11,1.84-2.03l1.66,1.66c-.55.92-1.47,1.84-2.4,2.4Z"/>
    <path class="cls-1" d="m874.68,287.08v-25.25h2.58v25.43h-2.58v-.19Z"/>
    <path class="cls-1" d="m895.5,287.08l-1.48-6.26h-7.74l-1.66,6.26h-2.58l6.45-25.43h3.32l6.26,25.43h-2.58Zm-5.34-23.03h0l-3.69,14.74h7.01l-3.32-14.74Z"/>
    <path class="cls-1" d="m672.55,337.93v-25.43h10.13v2.21h-7.74v8.84h7.19v2.21h-7.19v9.77h8.11v2.21h-10.5v.18Z"/>
    <path class="cls-1" d="m708.66,337.75c-1.11.55-2.21.92-3.5.92-1.47,0-2.58-.37-3.69-1.11-1.1-.74-2.03-1.66-2.76-2.77-.74-1.1-1.29-2.58-1.66-4.24-.37-1.66-.55-3.32-.55-5.34,0-1.84.18-3.69.55-5.34.37-1.66.92-2.95,1.66-4.24.74-1.29,1.66-2.03,2.76-2.76,1.11-.74,2.21-.92,3.69-.92,1.1,0,2.39.18,3.31.74,1.11.55,1.85,1.29,2.58,2.4l-1.66,1.66c-.55-.92-1.11-1.47-1.84-1.84-.74-.37-1.47-.55-2.39-.55-1.11,0-2.03.37-2.77.92-.74.55-1.47,1.29-1.84,2.39-.55.92-.92,2.21-1.11,3.5s-.37,2.76-.37,4.24.18,2.95.37,4.24c.18,1.29.74,2.58,1.11,3.5.55.92,1.1,1.84,1.84,2.4.74.55,1.66.92,2.77.92.92,0,1.66-.18,2.39-.74.74-.55,1.29-1.11,1.84-2.03l1.66,1.66c-.37.92-1.29,1.66-2.4,2.4Z"/>
    <path class="cls-1" d="m731.88,325.22c0,2.03-.18,3.87-.55,5.34-.37,1.47-.92,2.95-1.66,4.24-.74,1.11-1.66,2.03-2.58,2.77-1.11.55-2.21.92-3.5.92s-2.58-.37-3.5-.92c-.92-.55-1.84-1.48-2.58-2.77-.74-1.1-1.29-2.58-1.66-4.24-.37-1.66-.55-3.5-.55-5.34,0-2.03.19-3.69.55-5.34.37-1.66.92-2.95,1.66-4.24.74-1.11,1.66-2.03,2.58-2.76,1.11-.74,2.21-.92,3.68-.92,1.29,0,2.39.37,3.5.92,1.1.55,1.84,1.47,2.58,2.76.74,1.11,1.29,2.58,1.66,4.24.37,1.66.37,3.5.37,5.34Zm-2.58,0c0-1.47-.18-2.95-.37-4.24-.18-1.29-.55-2.58-1.1-3.5-.55-.92-1.11-1.84-1.84-2.4-.74-.55-1.48-.92-2.4-.92s-1.84.37-2.58.92c-.74.55-1.29,1.29-1.84,2.4-.55.92-.92,2.21-1.1,3.5-.19,1.29-.37,2.76-.37,4.24s.18,2.95.37,4.24c.19,1.29.55,2.58,1.1,3.5.55.92,1.11,1.84,1.84,2.4.74.55,1.66.92,2.58.92s1.84-.37,2.58-.92c.74-.55,1.29-1.29,1.85-2.4.55-.92.92-2.21,1.11-3.5,0-1.29.18-2.58.18-4.24Z"/>
    <path class="cls-1" d="m749.75,337.93l-8.84-21.01h-.19v21.01h-2.4v-25.43h3.13l8.85,21.01h.18v-21.01h2.21v25.43h-2.95Z"/>
    <path class="cls-1" d="m762.84,314.9v9.03h7.18v2.21h-7.18v11.79h-2.4v-25.43h10.13v2.21h-7.74v.18Z"/>
    <path class="cls-1" d="m776.29,337.93v-25.43h2.58v25.43h-2.58Z"/>
    <path class="cls-1" d="m797.29,337.93l-1.47-6.27h-7.74l-1.66,6.27h-2.58l6.45-25.43h3.32l6.27,25.43h-2.58Zm-5.35-23.03h0l-3.68,14.74h7l-3.32-14.74Z"/>
    <path class="cls-1" d="m816.09,337.93l-8.85-21.01h-.18v21.01h-2.39v-25.43h3.13l8.84,21.01h.19v-21.01h2.21v25.43h-2.95Z"/>
    <path class="cls-1" d="m837.65,337.75c-1.11.55-2.21.92-3.5.92l-1.11,2.03c.37-.18.74-.18,1.11-.18.55,0,1.29.18,1.84.55.55.37.92,1.11.92,1.84,0,.55-.19,1.1-.37,1.47-.19.37-.55.74-.93.92-.37.18-.73.37-1.29.55-.55.19-.92.19-1.29.19s-.92,0-1.47-.19c-.55-.18-1.11-.18-1.47-.55l.55-1.29c.37.18.74.37,1.11.37s.74.19,1.29.19h.55c.18,0,.55-.19.74-.19.19-.18.37-.37.55-.55.18-.19.18-.37.18-.74,0-.55-.18-.92-.55-1.11-.37-.19-.74-.37-1.29-.37s-.92.18-1.47.37l-.55-.55,1.84-2.95c-1.11-.19-2.21-.74-3.13-1.47-.92-.74-1.66-1.66-2.4-2.95-.55-1.11-1.1-2.58-1.47-4.05-.37-1.47-.55-3.13-.55-4.79,0-1.84.18-3.69.55-5.34.37-1.66.92-2.95,1.66-4.24.74-1.29,1.66-2.03,2.76-2.76,1.11-.74,2.21-.92,3.69-.92,1.11,0,2.4.18,3.32.74,1.1.55,1.84,1.29,2.58,2.4l-1.66,1.66c-.56-.92-1.11-1.47-1.84-1.84-.74-.37-1.47-.55-2.4-.55-1.11,0-2.03.37-2.76.92-.74.55-1.47,1.29-1.84,2.39-.55.92-.92,2.21-1.11,3.5-.18,1.29-.36,2.76-.36,4.24s.18,2.95.36,4.24c.19,1.29.74,2.58,1.11,3.5.55.92,1.1,1.84,1.84,2.4.74.55,1.66.92,2.76.92.92,0,1.66-.18,2.4-.74.74-.55,1.29-1.11,1.84-2.03l1.66,1.66c-.37.92-1.29,1.66-2.39,2.4Z"/>
    <path class="cls-1" d="m856.07,337.93l-1.47-6.27h-7.74l-1.66,6.27h-2.58l6.45-25.43h3.32l6.27,25.43h-2.58Zm-5.35-23.03h0l-3.68,14.74h7l-3.32-14.74Z"/>
    <path class="cls-1" d="m684.89,370.36c0,1.1-.18,2.21-.55,3.13-.37.92-.74,1.66-1.29,2.21-.55.55-1.29,1.11-2.03,1.29-.74.18-1.47.55-2.4.55h-3.68v11.24h-2.4v-25.42h5.9c.74,0,1.47.18,2.21.37.74.18,1.47.55,2.03,1.1.55.55,1.11,1.29,1.47,2.21.37.92.74,2.03.74,3.32Zm-2.39,0c0-.92-.18-1.47-.37-2.21-.19-.55-.55-1.11-.92-1.47-.37-.37-.74-.74-1.29-.92-.55-.19-1.1-.19-1.66-.19h-3.31v9.77h3.31c1.11,0,2.03-.37,2.95-1.29.92-.74,1.29-2.03,1.29-3.68Z"/>
    <path class="cls-1" d="m700.18,388.79l-1.47-6.26h-7.74l-1.66,6.26h-2.58l6.45-25.42h3.32l6.27,25.42h-2.58Zm-5.34-23.03h0l-3.69,14.74h7l-3.32-14.74Z"/>
    <path class="cls-1" d="m718.06,388.79l-4.61-11.79h-3.32v11.79h-2.4v-25.42h6.08c.92,0,1.66.18,2.4.37.73.18,1.47.55,2.03,1.1.55.55,1.1,1.29,1.47,2.03.37.92.55,1.84.55,3.13,0,1.11-.18,2.03-.37,2.76-.18.74-.55,1.47-1.11,2.03-.37.55-.92.92-1.47,1.29-.55.37-1.1.55-1.66.55l4.98,12.16h-2.58Zm-.19-18.42c0-.92-.18-1.66-.37-2.21-.19-.55-.55-1.11-.92-1.47-.37-.37-.92-.55-1.47-.74-.55-.18-1.11-.18-1.66-.18h-3.32v9.58h3.32c1.29,0,2.39-.37,3.13-1.29.92-1.1,1.29-2.21,1.29-3.68Z"/>
    <path class="cls-1" d="m737.41,388.79l-1.47-6.26h-7.74l-1.66,6.26h-2.58l6.45-25.42h3.32l6.26,25.42h-2.58Zm-5.35-23.03h0l-3.68,14.74h7l-3.32-14.74Z"/>
    <path class="cls-1" d="m763.76,382.34c0,1.11-.18,2.03-.55,2.95-.37.92-.74,1.66-1.29,2.21-.55.55-1.29,1.11-2.03,1.48-.74.37-1.66.55-2.58.55-1.29,0-2.4-.18-3.5-.74-1.11-.55-2.03-1.29-2.58-2.21l1.47-1.84c.55.74,1.29,1.47,2.03,1.84.92.37,1.66.74,2.58.74,1.11,0,2.03-.37,2.95-1.29.92-.92,1.11-2.03,1.11-3.5,0-.74-.19-1.29-.37-1.84-.19-.55-.55-1.11-.92-1.47-.37-.37-.92-.74-1.29-1.11-.55-.37-1.11-.55-1.66-.92-.74-.37-1.29-.74-2.02-1.1-.74-.37-1.1-.92-1.66-1.48-.55-.55-.92-1.29-1.1-2.03-.37-.73-.37-1.66-.37-2.58,0-1.1.18-2.21.55-3.13.37-.92.92-1.66,1.48-2.21.55-.55,1.29-1.1,2.03-1.29.74-.37,1.47-.37,2.4-.37,1.1,0,2.21.18,3.13.55.92.37,1.66.92,2.4,1.84l-1.47,1.84c-.55-.74-1.1-1.1-1.66-1.47-.55-.37-1.29-.37-2.03-.37-.55,0-.92,0-1.47.19-.55.19-.92.37-1.29.92-.37.37-.74.92-.92,1.48-.19.55-.37,1.29-.37,2.03s.18,1.29.37,1.85c.18.55.55.92.92,1.47.37.37.74.74,1.29,1.11.55.37.92.55,1.47.92.74.37,1.29.74,2.03,1.11.74.37,1.29.92,1.84,1.47.55.55.92,1.29,1.29,2.03-.37.55-.18,1.29-.18,2.39Z"/>
    <path class="cls-1" d="m783.84,383.63c-.19,1.11-.74,2.21-1.29,2.95-.55.92-1.29,1.47-2.21,2.03-.92.55-2.03.74-3.5.74-1.29,0-2.58-.19-3.5-.74-.92-.55-1.66-1.11-2.21-2.03-.55-.92-.92-1.84-1.29-2.95-.18-1.11-.37-2.39-.37-3.69v-16.4h2.58v16.21c0,.92,0,1.84.18,2.76.19.93.37,1.66.74,2.4.37.74.74,1.29,1.47,1.66.55.37,1.47.74,2.39.74s1.66-.18,2.4-.74c.74-.55,1.11-.92,1.47-1.66.37-.74.55-1.47.74-2.4.18-.92.18-1.84.18-2.76v-16.21h2.58v16.4c0,1.29-.18,2.58-.37,3.69Z"/>
    <path class="cls-1" d="m801.9,388.79l-1.48-6.26h-7.74l-1.66,6.26h-2.58l6.45-25.42h3.32l6.27,25.42h-2.58Zm-5.34-23.03h0l-3.68,14.74h7l-3.32-14.74Z"/>
    <path class="cls-1" d="m834.51,388.79v-22.11h-.19l-6.26,22.11h-2.4l-6.27-22.11h-.18v22.11h-2.4v-25.42h3.68l6.08,21.37h.18l5.9-21.37h3.87v25.42h-2.03Z"/>
    <path class="cls-1" d="m858.84,379.94c0,1.29-.19,2.58-.37,3.69-.18,1.11-.74,2.21-1.29,2.95-.56.92-1.29,1.47-2.21,2.03-.92.55-2.03.74-3.5.74-1.29,0-2.58-.19-3.5-.74-.92-.55-1.66-1.11-2.21-2.03-.55-.92-.92-1.84-1.29-2.95-.18-1.11-.37-2.39-.37-3.69v-16.4h2.58v16.21c0,.92,0,1.84.18,2.76.18.93.37,1.66.74,2.4.37.74.74,1.29,1.47,1.66.55.37,1.47.74,2.39.74s1.66-.18,2.4-.74c.74-.55,1.11-.92,1.47-1.66.37-.74.55-1.47.74-2.4.18-.92.18-1.84.18-2.76v-16.21h2.58v16.4h0Zm-7-18.42h-2.03l3.13-5.16h2.58l-3.68,5.16Z"/>
    <path class="cls-1" d="m877.08,382.34c0,1.11-.19,2.03-.55,2.95-.37.92-.74,1.66-1.29,2.21-.55.55-1.29,1.11-2.02,1.48-.74.37-1.66.55-2.58.55-1.29,0-2.4-.18-3.5-.74-1.11-.55-2.03-1.29-2.58-2.21l1.47-1.84c.55.74,1.29,1.47,2.03,1.84.92.37,1.66.74,2.58.74,1.11,0,2.03-.37,2.95-1.29.92-.92,1.11-2.03,1.11-3.5,0-.74-.19-1.29-.37-1.84-.18-.55-.55-1.11-.92-1.47-.37-.37-.92-.74-1.29-1.11-.55-.37-1.11-.55-1.66-.92-.74-.37-1.29-.74-2.03-1.1-.74-.37-1.11-.92-1.66-1.48-.55-.55-.92-1.29-1.1-2.03-.37-.73-.37-1.66-.37-2.58,0-1.1.18-2.21.55-3.13.37-.92.92-1.66,1.48-2.21.55-.55,1.29-1.1,2.03-1.29.74-.37,1.47-.37,2.4-.37,1.11,0,2.21.18,3.13.55.92.37,1.66.92,2.39,1.84l-1.47,1.84c-.55-.74-1.1-1.1-1.66-1.47-.55-.37-1.29-.37-2.03-.37-.55,0-.92,0-1.48.19-.55.19-.92.37-1.29.92-.37.37-.74.92-.92,1.48-.19.55-.37,1.29-.37,2.03s.18,1.29.37,1.85c.18.55.55.92.92,1.47.37.37.74.74,1.29,1.11.55.37.92.55,1.48.92.74.37,1.29.74,2.03,1.11.74.37,1.29.92,1.84,1.47.55.55.92,1.29,1.29,2.03-.37.55-.18,1.29-.18,2.39Z"/>
    <path class="cls-1" d="m883.52,388.79v-25.42h2.58v25.42h-2.58Z"/>
    <path class="cls-1" d="m904.53,388.6c-1.11.55-2.21.92-3.5.92-1.47,0-2.58-.37-3.69-1.11-1.1-.74-2.03-1.66-2.76-2.76-.74-1.11-1.29-2.58-1.66-4.24-.37-1.66-.55-3.32-.55-5.34,0-1.84.18-3.69.55-5.35.37-1.66.92-2.95,1.66-4.24.73-1.29,1.66-2.03,2.76-2.76,1.11-.74,2.21-.92,3.69-.92,1.11,0,2.39.19,3.32.74,1.11.55,1.84,1.29,2.58,2.4l-1.66,1.66c-.55-.92-1.11-1.47-1.85-1.84-.73-.37-1.47-.55-2.39-.55-1.1,0-2.03.37-2.76.92-.74.55-1.48,1.29-1.84,2.39-.55.92-.92,2.21-1.11,3.5-.18,1.29-.37,2.76-.37,4.24s.18,2.95.37,4.24c.19,1.29.74,2.58,1.11,3.5.55.92,1.11,1.84,1.84,2.4.74.55,1.66.92,2.76.92.92,0,1.66-.18,2.39-.74.74-.55,1.29-1.11,1.85-2.03l1.66,1.66c-.37.92-1.29,1.66-2.4,2.4Z"/>
    <path class="cls-1" d="m922.96,388.79l-1.47-6.26h-7.74l-1.66,6.26h-2.58l6.45-25.42h3.31l6.27,25.42h-2.58Zm-5.34-23.03h0l-3.69,14.74h7l-3.31-14.74Z"/>
  </g>
  <g>
    <path class="cls-1" d="m1200.08,131.38h-38.51v-14.56h-13.64V50.85c0-13.63-4.79-25.43-14.56-35.01-9.77-9.77-21.38-14.56-35.01-14.56s-25.43,4.79-35.01,14.56c-9.77,9.77-14.56,21.37-14.56,35.01v80.71h-85.13c7.74-2.21,14.56-6.45,20.64-12.53,9.77-9.77,14.56-21.37,14.56-35.01v-33.17c0-13.63-4.79-25.43-14.56-35.01-9.77-9.77-21.38-14.56-35.01-14.56h-49.57v115.72h-23.4v14.56h-61.73c7.56-2.21,14.37-6.45,20.45-12.53,9.76-9.77,14.56-21.37,14.56-35.01v-33.17c0-13.63-4.79-25.43-14.56-35.01-9.77-9.77-21.37-14.56-35.01-14.56h-49.57v130.27h-49.93V38.88h-16.58v92.5h-22.3L618.74,1.1h-17.32v130.27h-49.94V16.4h14.19V0h-44.59v16.4h13.82v114.98h-132.67V50.67c0-9.21,3.32-16.95,9.77-23.4,6.45-6.45,14.19-9.77,23.4-9.77s16.95,3.32,23.4,9.77c6.45,6.45,9.77,14.19,9.77,23.4v13.08h-14v16.4h44.59v-16.4h-14v-13.08c0-13.64-4.79-25.43-14.56-35.01-9.76-9.76-21.37-14.56-35.01-14.56s-25.43,4.79-35.01,14.56c-9.77,9.77-14.56,21.38-14.56,35.01v80.71h-35.75v-14.56h-14.37V50.85c0-13.63-4.79-25.43-14.56-35.01-9.77-9.77-21.37-14.56-35.01-14.56s-25.43,4.79-35.01,14.56c-9.77,9.77-14.55,21.37-14.55,35.01v80.71h-64.68c-9.76-9.58-21.37-14.56-35.01-14.56-9.22,0-16.95-3.32-23.4-9.77-6.45-6.45-9.76-14.19-9.76-23.4v-33.17c0-9.21,3.32-16.95,9.76-23.4,6.45-6.45,14.19-9.77,23.4-9.77s16.95,3.32,23.4,9.77c6.45,6.45,9.76,14.19,9.76,23.4v4.97h-14.19v16.4h43.67v-16.4h-13.82v-4.97c0-13.64-4.79-25.43-14.55-35.01-9.77-9.77-21.38-14.56-35.01-14.56s-25.43,4.79-35.01,14.56c-9.77,9.76-14.56,21.37-14.56,35.01v33.17c0,13.64,4.79,25.43,14.56,35.01,6.08,6.08,12.9,10.13,20.45,12.53H23.77c-.92-5.71-5.9-10.13-11.79-10.13-6.63,0-11.98,5.34-11.98,11.98s5.34,11.98,11.98,11.98c5.9,0,10.87-4.42,11.79-10.14h123.09c4.79,1.48,9.03,4.24,12.9,8.11,6.45,6.45,9.77,14.19,9.77,23.4v33.17c0,3.31-.37,6.26-1.29,9.21h16.95c.55-2.95.74-6.08.74-9.21v-33.17c0-11.98-3.69-22.48-11.24-31.51h61.18v64.49c0,13.64,4.79,25.43,14.55,35.01,9.77,9.77,21.37,14.56,35.01,14.56s25.43-4.79,35.01-14.56c9.77-9.77,14.56-21.37,14.56-35.01v-64.49h49.93v64.49c0,13.64,4.79,25.43,14.55,35.01,9.77,9.77,21.38,14.56,35.01,14.56s25.43-4.79,35.01-14.56c9.76-9.77,14.56-21.37,14.56-35.01v-16.59h-16.59v16.59c0,9.21-3.32,16.95-9.76,23.4-6.45,6.45-14.19,9.76-23.4,9.76s-16.95-3.31-23.4-9.76c-6.45-6.45-9.77-14.19-9.77-23.4v-64.49h132.66v73.71h16.58v-73.71h49.93v114.06h16.58v-114.06h27.64l24.32,73.89h30.59v-73.89h49.94v73.89h16.58v-73.89h132.67v114.06h16.58v-114.06h21l44.04,114.06h17.69l-44.04-114.06h94.16v64.49c0,13.64,4.79,25.43,14.56,35.01,9.77,9.58,21.37,14.56,35.01,14.56s25.43-4.79,35.01-14.56c9.58-9.77,14.56-21.37,14.56-35.01v-64.49h51.96v-3.68h.92ZM766.89,17.69h33.17c9.21,0,16.95,3.32,23.4,9.77,6.45,6.45,9.76,14.19,9.76,23.4v33.17c0,9.21-3.32,16.95-9.76,23.4-6.45,6.45-14.19,9.77-23.4,9.77h-33.17V17.69Zm298.5,32.98c0-9.21,3.32-16.95,9.77-23.4,6.45-6.45,14.19-9.77,23.4-9.77s16.95,3.32,23.4,9.77c6.45,6.45,9.77,14.19,9.77,23.4v65.96h-14.37v14.56h-51.78V50.67h-.18Zm-149.25-32.98h33.17c9.21,0,16.95,3.32,23.4,9.77,6.45,6.45,9.77,14.19,9.77,23.4v33.17c0,9.21-3.32,16.95-9.77,23.4-6.45,6.45-14.19,9.77-23.4,9.77h-28.38v-.19h-4.79V17.69Zm-298.5,33.53l26.54,80.15h-26.54V51.22Zm-365.21-.55c0-9.21,3.32-16.95,9.77-23.4,6.45-6.45,14.19-9.77,23.4-9.77s16.95,3.32,23.4,9.77c6.45,6.45,9.77,14.19,9.77,23.4v65.96h-13.64v14.56h-52.51V50.67h-.19Zm66.34,148.88c0,9.21-3.32,16.95-9.77,23.4-6.45,6.45-14.19,9.76-23.4,9.76s-16.95-3.31-23.4-9.76c-6.45-6.45-9.77-14.19-9.77-23.4v-64.49h66.15v64.49h.18Zm365.02-.37l-21.19-64.12h21.19v64.12Zm447.75.37c0,9.21-3.32,16.95-9.77,23.4-6.45,6.45-14.19,9.76-23.4,9.76s-16.95-3.31-23.4-9.76c-6.45-6.45-9.77-14.19-9.77-23.4v-64.49h66.15v64.49h.18Z"/>
    <path class="cls-1" d="m103.18,183.15h-16.59v16.59c0,3.13.19,6.26.74,9.21h16.95c-.74-2.95-1.29-5.9-1.29-9.21v-16.59h.18Z"/>
  </g>
</svg>